HIERARCHY
ROOT Hips
{
	OFFSET 0.000000 0.000000 0.000000
	CHANNELS 6 Xposition Yposition Zposition Zrotation Yrotation Xrotation 
	JOINT LHipJoint
	{
		OFFSET 0.000000 0.000000 0.000000
		CHANNELS 3 Zrotation Yrotation Xrotation
		JOINT LeftUpLeg
		{
			OFFSET 1.363060 -1.794630 0.839290
			CHANNELS 3 Zrotation Yrotation Xrotation
			JOINT LeftLeg
			{
				OFFSET 2.448110 -6.726130 0.000000
				CHANNELS 3 Zrotation Yrotation Xrotation
				JOINT LeftFoot
				{
					OFFSET 2.562200 -7.039590 0.000000
					CHANNELS 3 Zrotation Yrotation Xrotation
					JOINT LeftToeBase
					{
						OFFSET 0.157640 -0.433110 2.322550
						CHANNELS 3 Zrotation Yrotation Xrotation
						End Site
						{
							OFFSET 0.000000 0.000000 0.000000
						}
					}
				}
			}
		}
	}
	JOINT RHipJoint
	{
		OFFSET 0.000000 0.000000 0.000000
		CHANNELS 3 Zrotation Yrotation Xrotation
		JOINT RightUpLeg
		{
			OFFSET -1.305520 -1.794630 0.839290
			CHANNELS 3 Zrotation Yrotation Xrotation
			JOINT RightLeg
			{
				OFFSET -2.542530 -6.985550 0.000000
				CHANNELS 3 Zrotation Yrotation Xrotation
				JOINT RightFoot
				{
					OFFSET -2.568260 -7.056230 0.000000
					CHANNELS 3 Zrotation Yrotation Xrotation
					JOINT RightToeBase
					{
						OFFSET -0.164730 -0.452590 2.363150
						CHANNELS 3 Zrotation Yrotation Xrotation
						End Site
						{
							OFFSET 0.000000 0.000000 0.000000
						}
					}
				}
			}
		}
	}
	JOINT LowerBack
	{
		OFFSET 0.000000 0.000000 0.000000
		CHANNELS 3 Zrotation Yrotation Xrotation
		JOINT Spine
		{
			OFFSET 0.028270 2.035590 -0.193380
			CHANNELS 3 Zrotation Yrotation Xrotation
			JOINT Spine1
			{
				OFFSET 0.056720 2.048850 -0.042750
				CHANNELS 3 Zrotation Yrotation Xrotation
				JOINT Neck
				{
					OFFSET 0.000000 0.000000 0.000000
					CHANNELS 3 Zrotation Yrotation Xrotation
					JOINT Neck1
					{
						OFFSET -0.054170 1.746240 0.172020
						CHANNELS 3 Zrotation Yrotation Xrotation
						JOINT Head
						{
							OFFSET 0.104070 1.761360 -0.123970
							CHANNELS 3 Zrotation Yrotation Xrotation
							End Site
							{
								OFFSET 0.000000 0.000000 0.000000
							}
						}
					}
				}
				JOINT LeftShoulder
				{
					OFFSET 0.000000 0.000000 0.000000
					CHANNELS 3 Zrotation Yrotation Xrotation
					JOINT LeftArm
					{
						OFFSET 3.362410 1.200890 -0.311210
						CHANNELS 3 Zrotation Yrotation Xrotation
						JOINT LeftForeArm
						{
							OFFSET 4.983000 -0.000000 -0.000000
							CHANNELS 3 Zrotation Yrotation Xrotation
							JOINT LeftHand
							{
								OFFSET 3.483560 -0.000000 -0.000000
								CHANNELS 3 Zrotation Yrotation Xrotation
								JOINT LeftFingerBase
								{
									OFFSET 0.000000 0.000000 0.000000
									CHANNELS 3 Zrotation Yrotation Xrotation
									JOINT LeftHandIndex1
									{
										OFFSET 0.715260 -0.000000 -0.000000
										CHANNELS 3 Zrotation Yrotation Xrotation
										End Site
										{
											OFFSET 0.000000 0.000000 0.000000
										}
									}
								}
								JOINT LThumb
								{
									OFFSET 0.000000 0.000000 0.000000
									CHANNELS 3 Zrotation Yrotation Xrotation
									End Site
									{
										OFFSET 0.000000 0.000000 0.000000
									}
								}
							}
						}
					}
				}
				JOINT RightShoulder
				{
					OFFSET 0.000000 0.000000 0.000000
					CHANNELS 3 Zrotation Yrotation Xrotation
					JOINT RightArm
					{
						OFFSET -3.136600 1.374050 -0.404650
						CHANNELS 3 Zrotation Yrotation Xrotation
						JOINT RightForeArm
						{
							OFFSET -5.241900 -0.000000 -0.000000
							CHANNELS 3 Zrotation Yrotation Xrotation
							JOINT RightHand
							{
								OFFSET -3.444170 -0.000000 -0.000000
								CHANNELS 3 Zrotation Yrotation Xrotation
								JOINT RightFingerBase
								{
									OFFSET 0.000000 0.000000 0.000000
									CHANNELS 3 Zrotation Yrotation Xrotation
									JOINT RightHandIndex1
									{
										OFFSET -0.622530 -0.000000 -0.000000
										CHANNELS 3 Zrotation Yrotation Xrotation
										End Site
										{
											OFFSET 0.000000 0.000000 0.000000
										}
									}
								}
								JOINT RThumb
								{
									OFFSET 0.000000 0.000000 0.000000
									CHANNELS 3 Zrotation Yrotation Xrotation
									End Site
									{
										OFFSET 0.000000 0.000000 0.000000
									}
								}
							}
						}
					}
				}
			}
		}
	}
}
MOTION
Frames: 6
Frame Time: 0.008333
11.394023 17.828440 18.718716 -167.702960 -72.197003 168.553637 -0.744351 -0.185743 0.221326 -12.825388 4.906960 -7.912766 1.915682 9.200577 26.234663 1.274628 -3.160483 -19.705855 0.006700 0.529800 1.455900 0.828596 0.279606 -0.126828 18.971282 12.307250 -15.595202 -3.709650 -12.160207 35.949278 -0.601397 -3.297204 -16.962939 -0.063000 1.619600 -4.455500 -1.870062 3.687385 10.419710 1.580799 4.671228 2.109857 2.338600 2.225687 -2.702232 -5.933068 -4.824220 -5.093338 9.781332 -6.171733 -4.644594 4.229100 -3.061400 -0.219700 -0.057702 -0.143525 0.062960 -84.365780 -2.297001 16.740061 13.035547 -21.542486 -2.573563 -0.094058 0.002203 -0.338443 19.087759 -5.589255 -1.940500 -7.125000 0.000000 0.000000 -5.586300 24.067900 2.835400 0.062424 0.107607 0.064058 86.699450 1.334209 -10.609562 -19.768357 30.388075 -5.611227 -0.166734 0.214781 -167.192706 -28.664080 19.439871 -10.478100 7.125000 0.000000 0.000000 -0.341100 -7.856400 -0.291300 
11.382863 17.831255 18.706048 -168.019518 -71.876317 168.840906 -0.746218 -0.180700 0.230677 -12.846755 5.067017 -7.527409 1.830593 9.028476 25.701367 1.264008 -2.854790 -19.742198 0.009700 0.634800 1.744300 0.823260 0.281009 -0.136115 18.931487 12.540310 -15.910568 -3.833580 -12.321591 36.523480 -0.614768 -3.855886 -17.566594 -0.029000 1.100100 -3.024300 -1.968877 3.696032 10.438047 1.528834 4.670464 2.105256 2.328535 2.225256 -2.721097 -6.091522 -4.891688 -5.042146 10.074998 -6.252868 -4.787688 4.372600 -3.105300 -0.252600 -0.061277 -0.144351 0.064750 -84.156218 -2.541188 16.437631 12.796167 -21.193897 -2.485155 -0.097149 0.003792 -0.168236 19.452166 -5.561606 -1.971300 -7.125000 0.000000 0.000000 -5.313800 24.082300 2.694100 0.059183 0.107902 0.063616 86.814161 1.164197 -10.211927 -19.991027 30.656530 -5.726645 -0.166550 0.212546 -167.527724 -28.490555 19.358139 -10.363100 7.125000 0.000000 0.000000 -0.239500 -7.980500 -0.204000 
11.368385 17.843923 18.693078 -169.402656 -71.619506 170.296451 -0.750537 -0.180481 0.236264 -13.271344 5.204325 -7.337468 1.756549 8.878517 25.238273 1.254131 -2.481117 -19.821068 0.005700 0.488300 1.341700 0.818333 0.286861 -0.145732 18.401131 12.612993 -16.475731 -3.927655 -12.441592 36.953430 -0.644875 -3.918024 -17.936754 -0.000100 0.074800 -0.205600 -2.478936 3.721990 10.249759 1.412106 4.655223 2.101503 2.478206 2.219546 -2.650523 -6.105211 -4.980908 -4.986159 10.260020 -6.365870 -5.081528 4.447500 -3.171300 -0.345300 -0.065017 -0.145567 0.066745 -84.001272 -2.793120 15.882592 12.583153 -20.883499 -2.408178 -0.097012 0.005410 0.272842 19.363166 -5.556364 -1.960100 -7.125000 0.000000 0.000000 -5.380100 24.090000 2.727100 0.057405 0.108053 0.064273 86.742996 1.296840 -9.918398 -20.033758 30.707650 -5.749156 -0.167887 0.210486 -167.560136 -28.589989 19.015085 -10.232000 7.125000 0.000000 0.000000 -0.346500 -8.342600 -0.292600 
11.350992 17.856088 18.679405 -169.824035 -71.291754 170.851154 -0.753570 -0.179102 0.242370 -13.364727 5.312138 -7.171059 1.692514 8.744045 24.826506 1.235429 -2.092104 -19.833646 0.003700 0.393400 1.081000 0.813264 0.291763 -0.155259 18.210093 12.642592 -17.037359 -4.004078 -12.537325 37.297830 -0.609961 -4.320216 -17.908394 -0.005000 -0.456600 1.254600 -2.863274 3.687873 10.013848 1.519035 4.585739 2.097828 2.845792 2.185035 -2.566824 -6.180958 -5.032233 -4.773293 10.199613 -6.420691 -5.613655 4.454300 -3.212600 -0.561700 -0.063078 -0.147049 0.069075 -84.175962 -2.956600 14.617592 12.424389 -20.651101 -2.352292 -0.093433 0.007930 1.222925 18.878022 -5.646284 -1.938200 -7.125000 0.000000 0.000000 -5.741100 24.012000 2.922100 0.061934 0.106733 0.065030 86.314895 1.506259 -9.495124 -19.992536 30.659759 -5.728747 -0.170031 0.207799 -167.493728 -28.699879 18.427260 -9.979200 7.125000 0.000000 0.000000 -0.490700 -8.975600 -0.408100 
11.335610 17.863729 18.663922 -169.934642 -70.906947 171.094108 -0.756366 -0.176693 0.249124 -13.347958 5.306091 -6.976387 1.637849 8.627296 24.470292 1.222627 -1.667756 -19.920746 0.004700 0.442600 1.216100 0.810488 0.294574 -0.163967 18.170527 12.886383 -17.450877 -4.054181 -12.598175 37.520175 -0.519382 -5.305633 -17.827574 -0.001300 -0.228600 0.628100 -3.199111 3.589070 9.866569 1.746311 4.438723 2.064227 3.343679 2.112849 -2.566933 -6.607497 -5.017276 -4.581392 10.110010 -6.375557 -6.058974 4.522300 -3.191500 -0.742900 -0.058925 -0.148176 0.070306 -84.515827 -2.961095 13.659017 12.348213 -20.537975 -2.325453 -0.093180 0.007288 1.520165 18.796362 -5.403912 -1.846400 -7.125000 0.000000 0.000000 -5.807600 24.270700 2.921500 0.067193 0.105066 0.064541 85.666144 1.465329 -8.686771 -20.073089 30.760251 -5.772679 -0.174151 0.205691 -167.550361 -29.146073 17.981397 -9.929000 7.125000 0.000000 0.000000 -0.835800 -9.391700 -0.688300 
11.321735 17.871270 18.648841 -170.223900 -70.524626 171.478370 -0.758344 -0.174367 0.254797 -13.386067 5.321763 -6.793696 1.595985 8.536437 24.194088 1.223388 -1.349658 -20.083848 0.003400 0.378000 1.038600 0.809885 0.296214 -0.172560 18.029268 13.312579 -17.733076 -4.074776 -12.622225 37.610153 -0.482742 -5.918162 -18.016040 -0.002500 -0.325600 0.894700 -3.538946 3.546433 9.726963 1.923039 4.362348 2.075578 3.774977 2.072785 -2.509551 -7.054286 -5.014401 -4.722100 10.141468 -6.346089 -6.156711 4.621100 -3.165700 -0.737700 -0.056733 -0.150065 0.070869 -84.771454 -3.073907 13.170216 12.282549 -20.439291 -2.301971 -0.094856 0.005518 1.427648 18.942138 -5.040432 -1.736600 -7.125000 0.000000 0.000000 -5.706800 24.649400 2.820000 0.071083 0.104463 0.063743 85.109887 1.481500 -7.996953 -20.157879 30.863980 -5.818124 -0.176691 0.205287 -167.666706 -29.434309 17.867920 -9.984800 7.125000 0.000000 0.000000 -1.037900 -9.465800 -0.853200 
